<?xml version="1.0" encoding="UTF-8" standalone="no"?>
<!-- Created with Inkscape (http://www.inkscape.org/) -->

<svg
   xmlns:dc="http://purl.org/dc/elements/1.1/"
   xmlns:cc="http://creativecommons.org/ns#"
   xmlns:rdf="http://www.w3.org/1999/02/22-rdf-syntax-ns#"
   xmlns:svg="http://www.w3.org/2000/svg"
   xmlns="http://www.w3.org/2000/svg"
   xmlns:sodipodi="http://sodipodi.sourceforge.net/DTD/sodipodi-0.dtd"
   xmlns:inkscape="http://www.inkscape.org/namespaces/inkscape"
   width="282.22223mm"
   height="55.29649mm"
   viewBox="0 0 1000 195.93245"
   id="svg12743"
   version="1.1"
   inkscape:version="0.91 r13725"
   sodipodi:docname="argonautscrew-name-white-v1.0.svg"
   inkscape:export-filename="/home/gustavorps/repos/argonautscrew.github.io/_assets/img/argonautscrew-name-white-v1.0.png"
   inkscape:export-xdpi="12.861575"
   inkscape:export-ydpi="12.861575">
  <defs
     id="defs12745" />
  <sodipodi:namedview
     id="base"
     pagecolor="#0fff89"
     bordercolor="#666666"
     borderopacity="1.0"
     inkscape:pageopacity="0"
     inkscape:pageshadow="2"
     inkscape:zoom="1"
     inkscape:cx="550.86711"
     inkscape:cy="43.588725"
     inkscape:document-units="px"
     inkscape:current-layer="layer1"
     showgrid="false"
     fit-margin-top="0"
     fit-margin-left="0"
     fit-margin-right="0"
     fit-margin-bottom="0"
     inkscape:window-width="1366"
     inkscape:window-height="723"
     inkscape:window-x="0"
     inkscape:window-y="0"
     inkscape:window-maximized="1" />
  <metadata
     id="metadata12748">
    <rdf:RDF>
      <cc:Work
         rdf:about="">
        <dc:format>image/svg+xml</dc:format>
        <dc:type
           rdf:resource="http://purl.org/dc/dcmitype/StillImage" />
        <dc:title></dc:title>
      </cc:Work>
    </rdf:RDF>
  </metadata>
  <g
     inkscape:label="logo"
     inkscape:groupmode="layer"
     id="layer1"
     transform="translate(781.93918,-776.59826)">
    <path
       d="m -403.30073,883.89659 47.27163,0 12.29053,12.9996 0,25.99942 -12.29053,12.99973 12.64503,27.18109 6.14537,0 0,9.45427 -22.21766,0 0,-9.45427 4.60899,0 -12.64516,-27.18109 -16.66323,0 0,27.18109 7.09081,0 0,9.45427 -26.23578,0 0,-9.45427 8.27248,0 0,-69.72551 -8.27248,0 0,-9.45433 z m 19.14497,10.16335 0,31.67192 23.39946,0 6.85437,-6.97259 0,-17.72674 -6.73629,-6.97259 -23.51754,0 z"
       style="font-style:normal;font-variant:normal;font-weight:normal;font-stretch:normal;font-size:medium;line-height:125%;font-family:Graduate;-inkscape-font-specification:Graduate;text-align:start;letter-spacing:1px;word-spacing:0px;text-anchor:start;fill:#ffffff;fill-opacity:1;stroke:none;stroke-width:1.20139527px;stroke-linecap:butt;stroke-linejoin:miter;stroke-opacity:1"
       id="path12695"
       inkscape:connector-curvature="0"
       inkscape:export-xdpi="22.9671"
       inkscape:export-ydpi="22.9671" />
    <path
       d="m -322.63918,883.89659 56.25318,0 0,23.16309 -9.45434,0 0,-13.70876 -27.65387,0 0,30.13549 27.65387,0 0,9.45434 -27.65387,0 0,30.13568 27.65387,0 0,-13.70882 9.45434,0 0,23.16309 -56.25318,0 0,-9.45427 8.27248,0 0,-69.72551 -8.27248,0 0,-9.45433 z"
       style="font-style:normal;font-variant:normal;font-weight:normal;font-stretch:normal;font-size:medium;line-height:125%;font-family:Graduate;-inkscape-font-specification:Graduate;text-align:start;letter-spacing:1px;word-spacing:0px;text-anchor:start;fill:#ffffff;fill-opacity:1;stroke:none;stroke-width:1.20139527px;stroke-linecap:butt;stroke-linejoin:miter;stroke-opacity:1"
       id="path12697"
       inkscape:connector-curvature="0"
       inkscape:export-xdpi="22.9671"
       inkscape:export-ydpi="22.9671" />
    <path
       d="m -251.78647,893.35092 0,-9.45433 25.05397,0 0,9.45433 -8.74526,0 17.13588,66.18017 17.13594,-66.18017 -5.08164,0 0,-9.45433 25.52669,0 0,9.45433 -5.19992,0 17.13594,66.18017 17.13594,-66.18017 -8.62704,0 0,-9.45433 25.05391,0 0,9.45433 -5.55443,0 -20.44499,79.17978 -14.53598,0 -17.72674,-68.42549 -17.72688,68.42549 -14.53598,0 -20.56313,-79.17978 -5.43628,0 z"
       style="font-style:normal;font-variant:normal;font-weight:normal;font-stretch:normal;font-size:medium;line-height:125%;font-family:Graduate;-inkscape-font-specification:Graduate;text-align:start;letter-spacing:1px;word-spacing:0px;text-anchor:start;fill:#ffffff;fill-opacity:1;stroke:none;stroke-width:1.20139527px;stroke-linecap:butt;stroke-linejoin:miter;stroke-opacity:1"
       id="path12699"
       inkscape:connector-curvature="0"
       inkscape:export-xdpi="22.9671"
       inkscape:export-ydpi="22.9671" />
    <path
       style="color:#000000;font-style:normal;font-variant:normal;font-weight:normal;font-stretch:normal;font-size:medium;line-height:normal;font-family:sans-serif;text-indent:0;text-align:start;text-decoration:none;text-decoration-line:none;text-decoration-style:solid;text-decoration-color:#000000;letter-spacing:normal;word-spacing:normal;text-transform:none;direction:ltr;block-progression:tb;writing-mode:lr-tb;baseline-shift:baseline;text-anchor:start;white-space:normal;clip-rule:nonzero;display:inline;overflow:visible;visibility:visible;opacity:1;isolation:auto;mix-blend-mode:normal;color-interpolation:sRGB;color-interpolation-filters:linearRGB;solid-color:#000000;solid-opacity:1;fill:#ffffff;fill-opacity:1;fill-rule:evenodd;stroke:none;stroke-width:1.72934043;stroke-linecap:butt;stroke-linejoin:miter;stroke-miterlimit:4;stroke-dasharray:none;stroke-dashoffset:0;stroke-opacity:1;color-rendering:auto;image-rendering:auto;shape-rendering:auto;text-rendering:auto;enable-background:accumulate"
       d="m -417.99391,883.44365 -11.04969,0.0131 -0.0326,9.47164 -79.18892,34.05003 79.21805,34.73297 0.0457,9.45095 11.0973,-0.0131 -0.0914,-29.57146 -10.977,-0.0326 -0.0588,8.86536 -53.20303,-23.48194 53.17815,-22.91523 0.0131,8.87574 11.02683,0.0131 0.0196,-29.4573 z"
       id="path12701"
       inkscape:connector-curvature="0"
       sodipodi:nodetypes="cccccccccccccccc"
       inkscape:export-xdpi="22.9671"
       inkscape:export-ydpi="22.9671" />
    <path
       style="color:#000000;font-style:normal;font-variant:normal;font-weight:normal;font-stretch:normal;font-size:medium;line-height:normal;font-family:sans-serif;text-indent:0;text-align:start;text-decoration:none;text-decoration-line:none;text-decoration-style:solid;text-decoration-color:#000000;letter-spacing:normal;word-spacing:normal;text-transform:none;direction:ltr;block-progression:tb;writing-mode:lr-tb;baseline-shift:baseline;text-anchor:start;white-space:normal;clip-rule:nonzero;display:inline;overflow:visible;visibility:visible;opacity:1;isolation:auto;mix-blend-mode:normal;color-interpolation:sRGB;color-interpolation-filters:linearRGB;solid-color:#000000;solid-opacity:1;fill:#ffffff;fill-opacity:1;fill-rule:evenodd;stroke:none;stroke-width:1.69667637;stroke-linecap:butt;stroke-linejoin:miter;stroke-miterlimit:4;stroke-dasharray:none;stroke-dashoffset:0;stroke-opacity:1;color-rendering:auto;image-rendering:auto;shape-rendering:auto;text-rendering:auto;enable-background:accumulate"
       d="m -461.46803,777.79122 -34.077,77.72322 -9.27232,0.0457 0.0131,10.88968 29.01096,-0.0895 0.0392,-10.77139 -8.69935,-0.0523 23.03763,-52.20018 22.48334,52.17523 -8.70967,0.0131 0,10.81705 28.89883,0.0196 -0.0131,-10.84199 -9.29316,-0.0327 -33.41663,-77.69206 z"
       id="path12703"
       inkscape:connector-curvature="0"
       sodipodi:nodetypes="cccccccccccccccc"
       inkscape:export-xdpi="22.9671"
       inkscape:export-ydpi="22.9671" />
    <path
       d="m -404.70321,779.53411 46.37869,0 12.05841,12.75417 0,25.50827 -12.05841,12.75417 12.4062,26.66774 6.0293,0 0,9.27571 -21.79803,0 0,-9.27571 4.522,0 -12.40633,-26.66774 -16.34842,0 0,26.66774 6.95672,0 0,9.27571 -25.74013,0 0,-9.27571 8.11625,0 0,-68.40857 -8.11625,0 0,-9.27578 z m 18.78341,9.97147 0,31.07381 22.95729,0 6.725,-6.84086 0,-17.39209 -6.609,-6.84086 -23.07329,0 z"
       style="font-style:normal;font-variant:normal;font-weight:normal;font-stretch:normal;font-size:medium;line-height:125%;font-family:Graduate;-inkscape-font-specification:Graduate;text-align:start;letter-spacing:1px;word-spacing:0px;text-anchor:start;fill:#ffffff;fill-opacity:1;stroke:none;stroke-width:0.57615948px;stroke-linecap:butt;stroke-linejoin:miter;stroke-opacity:1"
       id="path12705"
       inkscape:connector-curvature="0"
       inkscape:export-xdpi="22.9671"
       inkscape:export-ydpi="22.9671" />
    <path
       d="m -280.6271,831.13049 -16.00065,0 0,-9.27571 25.27636,0 0,31.88522 -12.05848,12.75417 -30.37805,0 -12.05848,-12.75417 0,-61.45172 12.05848,-12.75417 30.37805,0 12.05848,12.75417 0,14.60932 -9.27571,0 0,-9.85547 -7.3047,-7.53655 -21.2182,0 -6.0293,6.14516 0,54.72686 5.91331,6.14517 21.2182,0 7.42069,-7.53648 0,-17.8558 z"
       style="font-style:normal;font-variant:normal;font-weight:normal;font-stretch:normal;font-size:medium;line-height:125%;font-family:Graduate;-inkscape-font-specification:Graduate;text-align:start;letter-spacing:1px;word-spacing:0px;text-anchor:start;fill:#ffffff;fill-opacity:1;stroke:none;stroke-width:0.57615948px;stroke-linecap:butt;stroke-linejoin:miter;stroke-opacity:1"
       id="path12707"
       inkscape:connector-curvature="0"
       inkscape:export-xdpi="22.9671"
       inkscape:export-ydpi="22.9671" />
    <path
       d="m -245.25049,866.49417 -12.05847,-12.75417 0,-61.45172 12.05847,-12.75417 32.69705,0 12.05848,12.75417 0,61.45172 -12.05848,12.75417 -32.69705,0 z m 4.52193,-9.9714 23.53726,0 6.02918,-6.14517 0,-54.72686 -5.91325,-6.14516 -23.53719,0 -6.02931,6.14516 0,54.72686 5.91331,6.14517 z"
       style="font-style:normal;font-variant:normal;font-weight:normal;font-stretch:normal;font-size:medium;line-height:125%;font-family:Graduate;-inkscape-font-specification:Graduate;text-align:start;letter-spacing:1px;word-spacing:0px;text-anchor:start;fill:#ffffff;fill-opacity:1;stroke:none;stroke-width:0.57615948px;stroke-linecap:butt;stroke-linejoin:miter;stroke-opacity:1"
       id="path12709"
       inkscape:connector-curvature="0"
       inkscape:export-xdpi="22.9671"
       inkscape:export-ydpi="22.9671" />
    <path
       d="m -167.669,857.21846 8.11625,0 0,9.27571 -26.89966,0 0,-9.27571 8.11625,0 0,-68.40857 -8.11625,0 0,-9.27578 24.1169,0 33.85644,73.85811 0,-64.58233 -8.11632,0 0,-9.27578 26.89973,0 0,9.27578 -8.11632,0 0,77.68428 -16.00064,0 -33.85638,-73.74212 0,64.46641 z"
       style="font-style:normal;font-variant:normal;font-weight:normal;font-stretch:normal;font-size:medium;line-height:125%;font-family:Graduate;-inkscape-font-specification:Graduate;text-align:start;letter-spacing:1px;word-spacing:0px;text-anchor:start;fill:#ffffff;fill-opacity:1;stroke:none;stroke-width:0.57615948px;stroke-linecap:butt;stroke-linejoin:miter;stroke-opacity:1"
       id="path12711"
       inkscape:connector-curvature="0"
       inkscape:export-xdpi="22.9671"
       inkscape:export-ydpi="22.9671" />
    <path
       d="m 48.28907,779.53411 25.740194,0 0,9.27578 -6.95685,0 0,64.93011 -12.058478,12.75417 -31.537449,0 -12.058543,-12.75417 0,-64.93011 -6.9567848,0 0,-9.27578 25.7401938,0 0,9.27578 -8.116249,0 0,61.56771 5.913247,6.14517 22.377729,0 6.029239,-6.14517 0,-61.56771 -8.116249,0 0,-9.27578 z"
       style="font-style:normal;font-variant:normal;font-weight:normal;font-stretch:normal;font-size:medium;line-height:125%;font-family:Graduate;-inkscape-font-specification:Graduate;text-align:start;letter-spacing:1px;word-spacing:0px;text-anchor:start;fill:#ffffff;fill-opacity:1;stroke:none;stroke-width:0.57615948px;stroke-linecap:butt;stroke-linejoin:miter;stroke-opacity:1"
       id="path12713"
       inkscape:connector-curvature="0"
       inkscape:export-xdpi="22.9671"
       inkscape:export-ydpi="22.9671" />
    <path
       d="m 136.30547,866.49417 -33.85637,0 0,-9.27571 11.59464,0 0,-68.40857 -17.160109,0 0,13.44986 -8.81194,0 0,-22.72564 62.611189,0 0,22.72564 -8.81194,0 0,-13.44986 -17.16011,0 0,68.40857 11.59464,0 0,9.27571 z"
       style="font-style:normal;font-variant:normal;font-weight:normal;font-stretch:normal;font-size:medium;line-height:125%;font-family:Graduate;-inkscape-font-specification:Graduate;text-align:start;letter-spacing:1px;word-spacing:0px;text-anchor:start;fill:#ffffff;fill-opacity:1;stroke:none;stroke-width:0.57615948px;stroke-linecap:butt;stroke-linejoin:miter;stroke-opacity:1"
       id="path12715"
       inkscape:connector-curvature="0"
       inkscape:export-xdpi="22.9671"
       inkscape:export-ydpi="22.9671" />
    <path
       d="m 216.90132,806.8976 -9.62362,0 0,-10.20332 -6.95672,-7.1887 -17.74,0 -6.02911,6.14516 0,16.00071 5.68133,5.79732 24.11689,0 11.7107,12.29034 0,24.00089 -12.05855,12.75417 -29.21852,0 -12.05841,-12.75417 0,-14.60919 9.62356,0 0,10.20332 7.07271,7.18864 20.0588,0 5.91331,-6.14517 0,-17.27603 -5.56547,-5.68146 -24.11689,0 -11.82656,-12.40619 0,-22.72564 12.05841,-12.75417 26.89966,0 12.05848,12.75417 0,14.60932 z"
       style="font-style:normal;font-variant:normal;font-weight:normal;font-stretch:normal;font-size:medium;line-height:125%;font-family:Graduate;-inkscape-font-specification:Graduate;text-align:start;letter-spacing:1px;word-spacing:0px;text-anchor:start;fill:#ffffff;fill-opacity:1;stroke:none;stroke-width:0.57615948px;stroke-linecap:butt;stroke-linejoin:miter;stroke-opacity:1"
       id="path12717"
       inkscape:connector-curvature="0"
       inkscape:export-xdpi="22.9671"
       inkscape:export-ydpi="22.9671" />
    <path
       sodipodi:nodetypes="cccccccccccccccc"
       inkscape:connector-curvature="0"
       id="path12719"
       d="m -52.303792,777.79122 -34.076997,77.72322 -9.272382,0.0457 0.01306,10.88968 29.010963,-0.0895 0.03919,-10.77139 -8.699344,-0.0523 23.03763,-52.20018 22.483401,52.17523 -8.709598,0.0131 0,10.81705 28.8988237,0.0196 -0.013062,-10.84199 -9.2931507,-0.0327 -33.416704,-77.69206 z"
       style="color:#000000;font-style:normal;font-variant:normal;font-weight:normal;font-stretch:normal;font-size:medium;line-height:normal;font-family:sans-serif;text-indent:0;text-align:start;text-decoration:none;text-decoration-line:none;text-decoration-style:solid;text-decoration-color:#000000;letter-spacing:normal;word-spacing:normal;text-transform:none;direction:ltr;block-progression:tb;writing-mode:lr-tb;baseline-shift:baseline;text-anchor:start;white-space:normal;clip-rule:nonzero;display:inline;overflow:visible;visibility:visible;opacity:1;isolation:auto;mix-blend-mode:normal;color-interpolation:sRGB;color-interpolation-filters:linearRGB;solid-color:#000000;solid-opacity:1;fill:#ffffff;fill-opacity:1;fill-rule:evenodd;stroke:none;stroke-width:1.69667637;stroke-linecap:butt;stroke-linejoin:miter;stroke-miterlimit:4;stroke-dasharray:none;stroke-dashoffset:0;stroke-opacity:1;color-rendering:auto;image-rendering:auto;shape-rendering:auto;text-rendering:auto;enable-background:accumulate"
       inkscape:export-xdpi="22.9671"
       inkscape:export-ydpi="22.9671" />
    <path
       inkscape:connector-curvature="0"
       style="opacity:1;fill:#ffffff;fill-rule:evenodd;stroke:#000000;stroke-width:0;stroke-linecap:butt;stroke-linejoin:round;stroke-miterlimit:4;stroke-dasharray:none;stroke-opacity:1"
       d="m -730.69542,879.29955 -30.91889,70.52197 -20.32487,0.0986 0.0196,20.61531 61.73145,-0.19136 0.0699,-20.35962 -20.81236,-0.13324 27.59979,-62.53314 -17.36283,-8.01815 z"
       id="path9889"
       inkscape:export-xdpi="22.9671"
       inkscape:export-ydpi="22.9671" />
    <path
       style="opacity:1;fill:#ffffff;fill-rule:evenodd;stroke:#000000;stroke-width:0;stroke-linecap:butt;stroke-linejoin:round;stroke-miterlimit:4;stroke-dasharray:none;stroke-opacity:1"
       d="m -648.94278,861.99269 -17.09101,7.36282 34.60569,80.45536 -20.81772,0.0327 -0.0196,20.45014 61.47047,0.0457 -0.0261,-20.50605 -20.38614,-0.0692 z m -17.09101,7.36282 z"
       id="path9887"
       inkscape:connector-curvature="0"
       sodipodi:nodetypes="ccccccccccc"
       inkscape:export-xdpi="22.9671"
       inkscape:export-ydpi="22.9671" />
    <path
       inkscape:connector-curvature="0"
       style="opacity:1;fill:#ffffff;fill-rule:evenodd;stroke:#000000;stroke-width:0;stroke-linecap:butt;stroke-linejoin:round;stroke-miterlimit:4;stroke-dasharray:none;stroke-opacity:1"
       d="m -685.66343,776.59858 -38.92914,88.78779 25.86304,-11.15869 13.21527,-29.9387 8.79861,20.42349 11.95777,-5.14114 5.20254,-2.2429 0,-0.003 -26.10809,-60.72717 z m 26.10809,60.72985 -0.0131,0.0131 0.0131,-0.007 0,-0.007 z"
       id="path9965"
       inkscape:export-xdpi="22.9671"
       inkscape:export-ydpi="22.9671" />
    <path
       inkscape:connector-curvature="0"
       style="opacity:1;fill:#ffffff;fill-rule:evenodd;stroke:#000000;stroke-width:0;stroke-linecap:butt;stroke-linejoin:round;stroke-miterlimit:4;stroke-dasharray:none;stroke-opacity:1"
       d="m -676.71565,844.71254 0,0.003 c 10e-4,6.5e-4 0,-10e-4 0,-0.003 z"
       id="path9875"
       inkscape:export-xdpi="22.9671"
       inkscape:export-ydpi="22.9671" />
    <path
       style="opacity:1;fill:#ffffff;fill-rule:evenodd;stroke:#cccccc;stroke-width:0;stroke-linecap:butt;stroke-linejoin:round;stroke-miterlimit:4;stroke-dasharray:none;stroke-opacity:1"
       d="m -541.68658,779.17993 -20.50618,0.0261 -0.0699,20.38888 -173.15893,74.45911 82.16507,36.01216 -11.14276,-25.86037 -23.33505,-10.30103 125.51928,-54.08883 0.0261,20.82039 20.45282,0.0131 z m -75.35948,146.77379 54.85076,24.04897 0.0953,20.32494 20.61531,-0.0196 -0.19201,-61.73407 -20.35969,-0.0666 -0.13127,20.80974 -65.92174,-29.06262 z m 0,0 z"
       id="path9799"
       inkscape:connector-curvature="0"
       sodipodi:nodetypes="cccccccccccccccccccccc"
       inkscape:export-xdpi="22.9671"
       inkscape:export-ydpi="22.9671" />
  </g>
</svg>
